<?xml version="1.0" encoding="UTF-8" standalone="no"?>
<!-- Created with Inkscape (http://www.inkscape.org/) -->

<svg
   xmlns:dc="http://purl.org/dc/elements/1.1/"
   xmlns:cc="http://creativecommons.org/ns#"
   xmlns:rdf="http://www.w3.org/1999/02/22-rdf-syntax-ns#"
   xmlns:svg="http://www.w3.org/2000/svg"
   xmlns="http://www.w3.org/2000/svg"
   version="1.1"
   width="90"
   height="90"
   id="svg2985"
   xml:space="preserve"><metadata
     id="metadata2991"><rdf:RDF><cc:Work
         rdf:about=""><dc:format>image/svg+xml</dc:format><dc:type
           rdf:resource="http://purl.org/dc/dcmitype/StillImage" /><dc:title></dc:title></cc:Work></rdf:RDF></metadata><defs
     id="defs2989" /><g
     transform="matrix(1.25,0,0,-1.25,0,90.000017)"
     id="g2993"><g
       id="g2997"><path
         d="m -94.400356,62.433809 17.693952,17.692103 c 0.680395,0.680394 0.682244,1.784187 0.0018,2.46643 l -17.695752,17.775298 c -0.32725,0.32911 -0.77284,0.514 -1.23691,0.514 l -2.23532,0 c -1.29793,0 -1.94874,-1.567867 -1.03353,-2.486769 l 15.730419,-15.802529 c 0.680395,-0.682243 0.678546,-1.786036 -0.0018,-2.46643 L -98.893176,64.41213 c -0.9189,-0.918902 -0.26809,-2.488616 1.03168,-2.488616 l 2.22793,0 c 0.46222,0 0.90596,0.18304 1.23321,0.510295 z M -122.89372,48.522703 c -0.97437,0 -1.66216,0.95588 -1.35155,1.87848 l 20.45251,60.845377 c 0.21632,0.74695 0.90041,1.26095 1.67695,1.26095 l 1.96723,-0.085 c 1.027984,-0.0259 1.732414,-1.04463 1.394074,-2.0153 L -119.21257,49.783652 c -0.21447,-0.746956 -0.89856,-1.260949 -1.67695,-1.260949 l -2.0042,0 z m -5.24717,13.911106 -17.69396,17.692103 c -0.68039,0.680394 -0.68224,1.784187 -0.004,2.46643 l 17.69766,17.775298 c 0.32725,0.32911 0.77099,0.514 1.23506,0.514 l 2.44239,0 c 1.22212,0 1.83411,-1.475422 0.97252,-2.342554 L -139.3678,82.592342 c -0.67855,-0.682243 -0.6767,-1.786036 0.004,-2.46643 l 15.85994,-15.857997 c 0.86528,-0.865283 0.2533,-2.344401 -0.97067,-2.344401 l -2.43315,0 c -0.46222,0 -0.90596,0.18304 -1.23321,0.510295 z"
         id="path3005"
         style="fill:none;stroke:#000000;stroke-width:1.84889781;stroke-linecap:butt;stroke-linejoin:miter;stroke-miterlimit:10;stroke-opacity:1;stroke-dasharray:none" /><g
         transform="matrix(1.6885707,0,0,1.6885707,-398.24589,-132.10702)"
         id="g3252"
         style="stroke:#000000"><g
           transform="translate(-8005,38.9167)"
           id="g3019"
           style="stroke:#000000"><path
             d="m 8190.037,-20.061 0,-1.457 c 0,-0.222 -0.07,-0.403 -0.208,-0.541 -0.14,-0.14 -0.32,-0.209 -0.542,-0.209 l -22.276,0 c -0.223,0 -0.403,0.069 -0.542,0.209 -0.139,0.138 -0.208,0.319 -0.208,0.541 l 0,1.457 c 0,0.222 0.069,0.402 0.208,0.541 0.139,0.139 0.319,0.209 0.542,0.209 l 22.276,0 c 0.222,0 0.402,-0.07 0.542,-0.209 0.138,-0.139 0.208,-0.319 0.208,-0.541 z"
             id="path3163"
             style="fill:none;stroke:#000000;stroke-width:1;stroke-linecap:butt;stroke-linejoin:miter;stroke-miterlimit:10;stroke-opacity:1;stroke-dasharray:none" /><path
             d="m 8190.037,-14.106 0,-1.499 c 0,-0.195 -0.07,-0.361 -0.208,-0.5 -0.14,-0.139 -0.32,-0.208 -0.542,-0.208 l -22.276,0 c -0.223,0 -0.403,0.069 -0.542,0.208 -0.139,0.139 -0.208,0.305 -0.208,0.5 l 0,1.499 c 0,0.194 0.069,0.374 0.208,0.541 0.139,0.166 0.319,0.235 0.542,0.208 l 22.276,0 c 0.222,0 0.402,-0.07 0.542,-0.208 0.138,-0.139 0.208,-0.319 0.208,-0.541 z"
             id="path3161"
             style="fill:none;stroke:#000000;stroke-width:1;stroke-linecap:butt;stroke-linejoin:miter;stroke-miterlimit:10;stroke-opacity:1;stroke-dasharray:none" /><path
             d="m 8190.037,-2.321 0,-1.499 c 0,-0.195 -0.07,-0.361 -0.208,-0.5 -0.14,-0.139 -0.32,-0.222 -0.542,-0.249 l -22.276,0 c -0.223,0 -0.403,0.083 -0.542,0.249 -0.139,0.167 -0.208,0.333 -0.208,0.5 l 0,1.499 c 0,0.194 0.069,0.375 0.208,0.541 0.139,0.167 0.319,0.236 0.542,0.209 l 22.276,0 c 0.222,0 0.402,-0.07 0.542,-0.209 0.138,-0.139 0.208,-0.319 0.208,-0.541 z"
             id="path3159"
             style="fill:none;stroke:#000000;stroke-width:1;stroke-linecap:butt;stroke-linejoin:miter;stroke-miterlimit:10;stroke-opacity:1;stroke-dasharray:none" /><path
             d="m 8190.037,-8.152 0,-1.499 c 0,-0.195 -0.07,-0.361 -0.208,-0.5 -0.14,-0.139 -0.32,-0.222 -0.542,-0.25 l -22.276,0 c -0.223,0 -0.403,0.084 -0.542,0.25 -0.139,0.167 -0.208,0.333 -0.208,0.5 l 0,1.499 c 0,0.194 0.069,0.375 0.208,0.541 0.139,0.167 0.319,0.236 0.542,0.208 l 22.276,0 c 0.222,0 0.402,-0.069 0.542,-0.208 0.138,-0.139 0.208,-0.319 0.208,-0.541 z"
             id="path3157"
             style="fill:none;stroke:#000000;stroke-width:1;stroke-linecap:butt;stroke-linejoin:miter;stroke-miterlimit:10;stroke-opacity:1;stroke-dasharray:none" /><path
             d="m 8163.263,-20.061 0,-1.457 c 0,-0.222 -0.069,-0.403 -0.208,-0.541 -0.139,-0.14 -0.319,-0.209 -0.541,-0.209 l -1.458,0 c -0.194,0 -0.374,0.069 -0.541,0.209 -0.166,0.138 -0.236,0.319 -0.208,0.541 l 0,1.457 c 0,0.222 0.069,0.402 0.208,0.541 0.138,0.139 0.319,0.209 0.541,0.209 l 1.458,0 c 0.222,0 0.402,-0.07 0.541,-0.209 0.139,-0.139 0.208,-0.319 0.208,-0.541 z"
             id="path3155"
             style="fill:none;stroke:#000000;stroke-width:1;stroke-linecap:butt;stroke-linejoin:miter;stroke-miterlimit:10;stroke-opacity:1;stroke-dasharray:none" /><path
             d="m 8163.263,-14.106 0,-1.499 c 0,-0.195 -0.069,-0.361 -0.208,-0.5 -0.139,-0.139 -0.319,-0.208 -0.541,-0.208 l -1.458,0 c -0.194,0 -0.374,0.069 -0.541,0.208 -0.166,0.139 -0.236,0.305 -0.208,0.5 l 0,1.499 c 0,0.194 0.069,0.374 0.208,0.541 0.138,0.166 0.319,0.235 0.541,0.208 l 1.458,0 c 0.222,0 0.402,-0.07 0.541,-0.208 0.139,-0.139 0.208,-0.319 0.208,-0.541 z"
             id="path3153"
             style="fill:none;stroke:#000000;stroke-width:1;stroke-linecap:butt;stroke-linejoin:miter;stroke-miterlimit:10;stroke-opacity:1;stroke-dasharray:none" /><path
             d="m 8163.263,-2.395 0,-1.5 c 0,-0.194 -0.069,-0.36 -0.208,-0.499 -0.139,-0.139 -0.319,-0.223 -0.541,-0.25 l -1.458,0 c -0.194,0 -0.374,0.084 -0.541,0.25 -0.166,0.167 -0.236,0.333 -0.208,0.499 l 0,1.5 c 0,0.193 0.069,0.374 0.208,0.541 0.138,0.167 0.319,0.235 0.541,0.208 l 1.458,0 c 0.222,0 0.402,-0.069 0.541,-0.208 0.139,-0.139 0.208,-0.32 0.208,-0.541 z"
             id="path3151"
             style="fill:none;stroke:#000000;stroke-width:1;stroke-linecap:butt;stroke-linejoin:miter;stroke-miterlimit:10;stroke-opacity:1;stroke-dasharray:none" /><path
             d="m 8163.263,-8.152 0,-1.499 c 0,-0.195 -0.069,-0.361 -0.208,-0.5 -0.139,-0.139 -0.319,-0.222 -0.541,-0.25 l -1.458,0 c -0.194,0 -0.374,0.084 -0.541,0.25 -0.166,0.167 -0.236,0.333 -0.208,0.5 l 0,1.499 c 0,0.194 0.069,0.375 0.208,0.541 0.138,0.167 0.319,0.236 0.541,0.208 l 1.458,0 c 0.222,0 0.402,-0.069 0.541,-0.208 0.139,-0.139 0.208,-0.319 0.208,-0.541 z"
             id="path3149"
             style="fill:none;stroke:#000000;stroke-width:1;stroke-linecap:butt;stroke-linejoin:miter;stroke-miterlimit:10;stroke-opacity:1;stroke-dasharray:none" /><path
             d="m 8195.991,0.758 0,-25.274 c 0,-1.027 -0.361,-1.902 -1.083,-2.623 -0.721,-0.722 -1.595,-1.083 -2.622,-1.083 l -34.228,0 c -0.999,0 -1.873,0.361 -2.623,1.083 -0.749,0.721 -1.111,1.596 -1.082,2.623 l 0,25.274 c 0,1.027 0.36,1.902 1.082,2.624 0.722,0.721 1.596,1.096 2.623,1.124 l 34.228,0 c 1.027,0 1.901,-0.375 2.622,-1.124 0.722,-0.75 1.083,-1.624 1.083,-2.624 z"
             id="path3021"
             style="fill:none;stroke:#000000;stroke-width:1;stroke-linecap:butt;stroke-linejoin:miter;stroke-miterlimit:10;stroke-opacity:1;stroke-dasharray:none" /></g></g><g
         transform="matrix(1.5326969,0,0,1.5326969,-335.25,-5.1602409)"
         id="g3264"
         style="stroke:#000000"><path
           d="m 243.5156,46.6158 0,1.897 c 0,0.734 -0.596,1.33 -1.33,1.33 l -0.027,0 c -0.735,0 -1.331,-0.596 -1.331,-1.33 l 0,-1.897 c 0,-0.71 -0.575,-1.285 -1.285,-1.285 l -2.4,0 c -0.748,0 -1.355,-0.607 -1.355,-1.355 l 0,-0.027 c 0,-0.748 0.607,-1.354 1.355,-1.354 l 10.059,0 c 0.748,0 1.354,0.606 1.354,1.354 l 0,0.027 c 0,0.748 -0.606,1.355 -1.354,1.355 l -2.401,0 c -0.71,0 -1.285,0.575 -1.285,1.285 z m -14.688,-33.193 0,-0.345 c 0,-0.66 0.536,-1.195 1.196,-1.195 l 2.663,0 c 0.743,0 1.305,-0.669 1.178,-1.4 l -0.897,-5.155 c -0.113,-0.649 0.32,-1.267 0.968,-1.382 l 0.336,-0.06 c 0.651,-0.117 1.273,0.318 1.388,0.97 l 1.059,6.038 c 0.1,0.572 0.596,0.989 1.177,0.989 l 8.6,0 c 0.581,0 1.078,-0.417 1.178,-0.989 l 1.06,-6.038 c 0.114,-0.652 0.736,-1.087 1.387,-0.97 l 0.336,0.06 c 0.648,0.115 1.08,0.733 0.967,1.381 l -0.896,5.156 c -0.127,0.731 0.436,1.4 1.178,1.4 l 2.663,0 c 0.661,0 1.196,0.535 1.196,1.195 l 0,0.345 c 0,0.661 -0.535,1.196 -1.196,1.196 l -24.345,0 c -0.66,0 -1.196,-0.535 -1.196,-1.196 z m 29.797,3.172 -32.809,0 c -0.852,0 -1.542,0.69 -1.542,1.541 l 0,21.322 c 0,0.852 0.69,1.542 1.542,1.542 l 32.809,0 c 0.852,0 1.542,-0.69 1.542,-1.542 l 0,-21.322 c 0,-0.851 -0.69,-1.541 -1.542,-1.541 z"
           id="path3025"
           style="fill:none;stroke:#000000;stroke-width:1;stroke-linecap:butt;stroke-linejoin:miter;stroke-miterlimit:10;stroke-opacity:1;stroke-dasharray:none" /></g><g
         transform="matrix(1.3752426,0,0,1.3752426,-253.21815,-54.462013)"
         id="g3238"
         style="stroke:#000000"><path
           d="m 107.4952,27.6342 0,-4.944 c 0,-0.192 -0.064,-0.368 -0.192,-0.528 -0.128,-0.16 -0.272,-0.257 -0.432,-0.288 l -4.128,-0.672 c -0.192,-0.608 -0.48,-1.28 -0.864,-2.016 0.608,-0.864 1.408,-1.888 2.4,-3.072 0.128,-0.192 0.192,-0.384 0.192,-0.576 0,-0.192 -0.064,-0.353 -0.192,-0.48 -0.416,-0.545 -1.152,-1.344 -2.208,-2.4 -1.056,-1.056 -1.76,-1.584 -2.112,-1.584 -0.192,0 -0.368,0.064 -0.528,0.192 l -3.072,2.4 c -0.672,-0.352 -1.361,-0.624 -2.064,-0.816 -0.192,-1.92 -0.401,-3.312 -0.624,-4.176 -0.128,-0.416 -0.401,-0.624 -0.816,-0.624 l -4.992,0 c -0.192,0 -0.368,0.064 -0.528,0.192 -0.16,0.128 -0.24,0.288 -0.24,0.48 l -0.624,4.08 c -0.608,0.192 -1.28,0.48 -2.016,0.864 l -3.168,-2.4 c -0.128,-0.128 -0.296,-0.192 -0.504,-0.192 -0.208,0 -0.408,0.064 -0.6,0.192 -2.561,2.4 -3.84,3.84 -3.84,4.32 0,0.16 0.064,0.319 0.192,0.48 0.16,0.255 0.528,0.735 1.104,1.44 0.576,0.704 0.992,1.248 1.248,1.632 -0.416,0.768 -0.736,1.504 -0.96,2.208 l -4.08,0.624 c -0.161,0.032 -0.305,0.112 -0.432,0.24 -0.128,0.128 -0.192,0.304 -0.192,0.528 l 0,4.944 c 0,0.192 0.064,0.367 0.192,0.528 0.127,0.16 0.271,0.256 0.432,0.288 l 4.128,0.672 c 0.224,0.608 0.512,1.279 0.864,2.016 -0.608,0.864 -1.408,1.888 -2.4,3.072 -0.128,0.192 -0.192,0.384 -0.192,0.576 0,0.192 0.064,0.352 0.192,0.48 0.384,0.544 1.12,1.344 2.208,2.4 1.088,1.056 1.792,1.584 2.112,1.584 0.192,0 0.384,-0.064 0.576,-0.192 l 3.072,-2.4 c 0.608,0.32 1.296,0.608 2.064,0.864 0.192,1.92 0.4,3.296 0.624,4.128 0.096,0.416 0.352,0.624 0.768,0.624 l 4.992,0 c 0.192,0 0.368,-0.064 0.528,-0.192 0.16,-0.128 0.256,-0.288 0.288,-0.48 l 0.624,-4.08 c 0.608,-0.192 1.264,-0.464 1.968,-0.816 l 3.168,2.352 c 0.16,0.128 0.343,0.192 0.552,0.192 0.208,0 0.391,-0.064 0.552,-0.192 2.592,-2.4 3.888,-3.84 3.888,-4.32 0,-0.161 -0.064,-0.32 -0.192,-0.48 l -1.152,-1.44 c -0.544,-0.672 -0.944,-1.216 -1.2,-1.632 0.415,-0.864 0.72,-1.601 0.912,-2.208 l 4.08,-0.576 c 0.16,-0.065 0.304,-0.161 0.432,-0.288 0.128,-0.128 0.192,-0.304 0.192,-0.528"
           id="path3009"
           style="fill:#ffffff;fill-opacity:1;fill-rule:nonzero;stroke:#000000" /><path
           d="m 107.4952,27.6342 0,-4.944 c 0,-0.192 -0.064,-0.368 -0.192,-0.528 -0.128,-0.16 -0.272,-0.257 -0.432,-0.288 l -4.128,-0.672 c -0.192,-0.608 -0.48,-1.28 -0.864,-2.016 0.608,-0.864 1.408,-1.888 2.4,-3.072 0.128,-0.192 0.192,-0.384 0.192,-0.576 0,-0.192 -0.064,-0.353 -0.192,-0.48 -0.416,-0.545 -1.152,-1.344 -2.208,-2.4 -1.056,-1.056 -1.76,-1.584 -2.112,-1.584 -0.192,0 -0.368,0.064 -0.528,0.192 l -3.072,2.4 c -0.672,-0.352 -1.361,-0.624 -2.064,-0.816 -0.192,-1.92 -0.401,-3.312 -0.624,-4.176 -0.128,-0.416 -0.401,-0.624 -0.816,-0.624 l -4.992,0 c -0.192,0 -0.368,0.064 -0.528,0.192 -0.16,0.128 -0.24,0.288 -0.24,0.48 l -0.624,4.08 c -0.608,0.192 -1.28,0.48 -2.016,0.864 l -3.168,-2.4 c -0.128,-0.128 -0.296,-0.192 -0.504,-0.192 -0.208,0 -0.408,0.064 -0.6,0.192 -2.561,2.4 -3.84,3.84 -3.84,4.32 0,0.16 0.064,0.319 0.192,0.48 0.16,0.255 0.528,0.735 1.104,1.44 0.576,0.704 0.992,1.248 1.248,1.632 -0.416,0.768 -0.736,1.504 -0.96,2.208 l -4.08,0.624 c -0.161,0.032 -0.305,0.112 -0.432,0.24 -0.128,0.128 -0.192,0.304 -0.192,0.528 l 0,4.944 c 0,0.192 0.064,0.367 0.192,0.528 0.127,0.16 0.271,0.256 0.432,0.288 l 4.128,0.672 c 0.224,0.608 0.512,1.279 0.864,2.016 -0.608,0.864 -1.408,1.888 -2.4,3.072 -0.128,0.192 -0.192,0.384 -0.192,0.576 0,0.192 0.064,0.352 0.192,0.48 0.384,0.544 1.12,1.344 2.208,2.4 1.088,1.056 1.792,1.584 2.112,1.584 0.192,0 0.384,-0.064 0.576,-0.192 l 3.072,-2.4 c 0.608,0.32 1.296,0.608 2.064,0.864 0.192,1.92 0.4,3.296 0.624,4.128 0.096,0.416 0.352,0.624 0.768,0.624 l 4.992,0 c 0.192,0 0.368,-0.064 0.528,-0.192 0.16,-0.128 0.256,-0.288 0.288,-0.48 l 0.624,-4.08 c 0.608,-0.192 1.264,-0.464 1.968,-0.816 l 3.168,2.352 c 0.16,0.128 0.343,0.192 0.552,0.192 0.208,0 0.391,-0.064 0.552,-0.192 2.592,-2.4 3.888,-3.84 3.888,-4.32 0,-0.161 -0.064,-0.32 -0.192,-0.48 l -1.152,-1.44 c -0.544,-0.672 -0.944,-1.216 -1.2,-1.632 0.415,-0.864 0.72,-1.601 0.912,-2.208 l 4.08,-0.576 c 0.16,-0.065 0.304,-0.161 0.432,-0.288 0.128,-0.128 0.192,-0.304 0.192,-0.528 z"
           id="path3013"
           style="fill:none;stroke:#000000;stroke-width:1;stroke-linecap:butt;stroke-linejoin:miter;stroke-miterlimit:10;stroke-opacity:1;stroke-dasharray:none" /><path
           d="m 124.5776,43.3177 0,-3.744 c 0,-0.288 -1.329,-0.576 -3.984,-0.864 -0.192,-0.48 -0.449,-0.944 -0.768,-1.392 0.895,-2.016 1.344,-3.248 1.344,-3.696 0,-0.064 -0.032,-0.128 -0.096,-0.192 -2.177,-1.248 -3.281,-1.872 -3.312,-1.872 -0.161,0 -0.576,0.416 -1.248,1.248 -0.672,0.832 -1.137,1.44 -1.392,1.824 -0.353,-0.032 -0.624,-0.048 -0.816,-0.048 -0.192,0 -0.464,0.016 -0.816,0.048 -0.225,-0.384 -0.689,-0.992 -1.392,-1.824 -0.704,-0.832 -1.088,-1.248 -1.152,-1.248 -0.065,0 -1.184,0.624 -3.36,1.872 -0.096,0.064 -0.144,0.128 -0.144,0.192 0,0.448 0.463,1.68 1.392,3.696 -0.32,0.448 -0.593,0.912 -0.816,1.392 -2.657,0.288 -3.984,0.576 -3.984,0.864 l 0,3.744 c 0,0.288 1.327,0.559 3.984,0.816 0.223,0.512 0.496,0.976 0.816,1.392 -0.929,2.016 -1.392,3.248 -1.392,3.696 0,0.064 0.048,0.128 0.144,0.192 l 2.496,1.44 c 0.511,0.288 0.784,0.432 0.816,0.432 0.127,0 0.528,-0.416 1.2,-1.248 0.672,-0.832 1.135,-1.44 1.392,-1.824 0.384,0.064 0.655,0.096 0.816,0.096 0.16,0 0.432,-0.032 0.816,-0.096 0.895,1.28 1.711,2.288 2.448,3.024 l 0.192,0.048 c 0.064,0 1.168,-0.624 3.312,-1.872 0.064,-0.064 0.096,-0.128 0.096,-0.192 0,-0.448 -0.449,-1.68 -1.344,-3.696 0.288,-0.416 0.544,-0.88 0.768,-1.392 2.655,-0.257 3.984,-0.528 3.984,-0.816"
           id="path3029"
           style="fill:#ffffff;fill-opacity:1;fill-rule:nonzero;stroke:#000000" /><path
           d="m 124.5776,43.3177 0,-3.744 c 0,-0.288 -1.329,-0.576 -3.984,-0.864 -0.192,-0.48 -0.449,-0.944 -0.768,-1.392 0.895,-2.016 1.344,-3.248 1.344,-3.696 0,-0.064 -0.032,-0.128 -0.096,-0.192 -2.177,-1.248 -3.281,-1.872 -3.312,-1.872 -0.161,0 -0.576,0.416 -1.248,1.248 -0.672,0.832 -1.137,1.44 -1.392,1.824 -0.353,-0.032 -0.624,-0.048 -0.816,-0.048 -0.192,0 -0.464,0.016 -0.816,0.048 -0.225,-0.384 -0.689,-0.992 -1.392,-1.824 -0.704,-0.832 -1.088,-1.248 -1.152,-1.248 -0.065,0 -1.184,0.624 -3.36,1.872 -0.096,0.064 -0.144,0.128 -0.144,0.192 0,0.448 0.463,1.68 1.392,3.696 -0.32,0.448 -0.593,0.912 -0.816,1.392 -2.657,0.288 -3.984,0.576 -3.984,0.864 l 0,3.744 c 0,0.288 1.327,0.559 3.984,0.816 0.223,0.512 0.496,0.976 0.816,1.392 -0.929,2.016 -1.392,3.248 -1.392,3.696 0,0.064 0.048,0.128 0.144,0.192 l 2.496,1.44 c 0.511,0.288 0.784,0.432 0.816,0.432 0.127,0 0.528,-0.416 1.2,-1.248 0.672,-0.832 1.135,-1.44 1.392,-1.824 0.384,0.064 0.655,0.096 0.816,0.096 0.16,0 0.432,-0.032 0.816,-0.096 0.895,1.28 1.711,2.288 2.448,3.024 l 0.192,0.048 c 0.064,0 1.168,-0.624 3.312,-1.872 0.064,-0.064 0.096,-0.128 0.096,-0.192 0,-0.448 -0.449,-1.68 -1.344,-3.696 0.288,-0.416 0.544,-0.88 0.768,-1.392 2.655,-0.257 3.984,-0.528 3.984,-0.816 z"
           id="path3033"
           style="fill:none;stroke:#000000;stroke-width:1;stroke-linecap:butt;stroke-linejoin:miter;stroke-miterlimit:10;stroke-opacity:1;stroke-dasharray:none" /><path
           d="m 123.0599,13.1403 0,-2.844 c 0,-0.219 -1.009,-0.426 -3.027,-0.621 -0.146,-0.364 -0.341,-0.717 -0.584,-1.057 0.68,-1.532 1.021,-2.468 1.021,-2.809 0,-0.048 -0.024,-0.096 -0.073,-0.145 -1.653,-0.972 -2.492,-1.459 -2.516,-1.459 -0.122,0 -0.438,0.328 -0.948,0.984 l -1.058,1.35 c -0.268,-0.024 -0.474,-0.037 -0.62,-0.037 -0.146,0 -0.353,0.013 -0.62,0.037 -0.17,-0.267 -0.523,-0.717 -1.057,-1.35 -0.536,-0.631 -0.839,-0.96 -0.912,-0.984 -0.025,0 -0.864,0.487 -2.517,1.459 -0.073,0.049 -0.109,0.097 -0.109,0.145 0,0.341 0.352,1.277 1.057,2.809 -0.243,0.34 -0.45,0.693 -0.619,1.057 -2.019,0.195 -3.028,0.402 -3.028,0.621 l 0,2.844 c 0,0.219 1.009,0.438 3.028,0.657 0.169,0.388 0.376,0.741 0.619,1.057 -0.705,1.532 -1.057,2.468 -1.057,2.809 0,0.048 0.036,0.096 0.109,0.145 l 1.897,1.094 c 0.388,0.219 0.595,0.329 0.62,0.329 0.097,0 0.401,-0.316 0.912,-0.949 0.51,-0.632 0.862,-1.094 1.057,-1.385 l 0.62,0.036 0.62,-0.036 c 0.681,0.972 1.301,1.738 1.86,2.297 l 0.146,0.037 c 0.048,0 0.887,-0.474 2.516,-1.423 0.049,-0.049 0.073,-0.097 0.073,-0.145 0,-0.341 -0.341,-1.277 -1.021,-2.809 0.219,-0.316 0.413,-0.669 0.584,-1.057 2.018,-0.219 3.027,-0.438 3.027,-0.657"
           id="path3037"
           style="fill:#ffffff;fill-opacity:1;fill-rule:nonzero;stroke:#000000" /><path
           d="m 123.0599,13.1403 0,-2.844 c 0,-0.219 -1.009,-0.426 -3.027,-0.621 -0.146,-0.364 -0.341,-0.717 -0.584,-1.057 0.68,-1.532 1.021,-2.468 1.021,-2.809 0,-0.048 -0.024,-0.096 -0.073,-0.145 -1.653,-0.972 -2.492,-1.459 -2.516,-1.459 -0.122,0 -0.438,0.328 -0.948,0.984 l -1.058,1.35 c -0.268,-0.024 -0.474,-0.037 -0.62,-0.037 -0.146,0 -0.353,0.013 -0.62,0.037 -0.17,-0.267 -0.523,-0.717 -1.057,-1.35 -0.536,-0.631 -0.839,-0.96 -0.912,-0.984 -0.025,0 -0.864,0.487 -2.517,1.459 -0.073,0.049 -0.109,0.097 -0.109,0.145 0,0.341 0.352,1.277 1.057,2.809 -0.243,0.34 -0.45,0.693 -0.619,1.057 -2.019,0.195 -3.028,0.402 -3.028,0.621 l 0,2.844 c 0,0.219 1.009,0.438 3.028,0.657 0.169,0.388 0.376,0.741 0.619,1.057 -0.705,1.532 -1.057,2.468 -1.057,2.809 0,0.048 0.036,0.096 0.109,0.145 l 1.897,1.094 c 0.388,0.219 0.595,0.329 0.62,0.329 0.097,0 0.401,-0.316 0.912,-0.949 0.51,-0.632 0.862,-1.094 1.057,-1.385 l 0.62,0.036 0.62,-0.036 c 0.681,0.972 1.301,1.738 1.86,2.297 l 0.146,0.037 c 0.048,0 0.887,-0.474 2.516,-1.423 0.049,-0.049 0.073,-0.097 0.073,-0.145 0,-0.341 -0.341,-1.277 -1.021,-2.809 0.219,-0.316 0.413,-0.669 0.584,-1.057 2.018,-0.219 3.027,-0.438 3.027,-0.657 z"
           id="path3041"
           style="fill:none;stroke:#000000;stroke-width:1;stroke-linecap:butt;stroke-linejoin:miter;stroke-miterlimit:10;stroke-opacity:1;stroke-dasharray:none" /><path
           d="m 98.9008,25.1862 c 0,-4.717 -3.824,-8.542 -8.542,-8.542 -4.717,0 -8.541,3.825 -8.541,8.542 0,4.717 3.824,8.542 8.541,8.542 4.718,0 8.542,-3.825 8.542,-8.542"
           id="path3045"
           style="fill:#ffffff;fill-opacity:1;fill-rule:nonzero;stroke:#000000" /><path
           d="m 98.9008,25.1862 c 0,-4.717 -3.824,-8.542 -8.542,-8.542 -4.717,0 -8.541,3.825 -8.541,8.542 0,4.717 3.824,8.542 8.541,8.542 4.718,0 8.542,-3.825 8.542,-8.542 z"
           id="path3049"
           style="fill:none;stroke:#000000;stroke-width:1;stroke-linecap:butt;stroke-linejoin:miter;stroke-miterlimit:10;stroke-opacity:1;stroke-dasharray:none" /><path
           d="m 118.1206,41.4219 c 0,-2.107 -1.708,-3.815 -3.815,-3.815 -2.107,0 -3.815,1.708 -3.815,3.815 0,2.107 1.708,3.815 3.815,3.815 2.107,0 3.815,-1.708 3.815,-3.815"
           id="path3053"
           style="fill:#ffffff;fill-opacity:1;fill-rule:nonzero;stroke:#000000" /><path
           d="m 118.1206,41.4219 c 0,-2.107 -1.708,-3.815 -3.815,-3.815 -2.107,0 -3.815,1.708 -3.815,3.815 0,2.107 1.708,3.815 3.815,3.815 2.107,0 3.815,-1.708 3.815,-3.815 z"
           id="path3057"
           style="fill:none;stroke:#000000;stroke-width:1;stroke-linecap:butt;stroke-linejoin:miter;stroke-miterlimit:10;stroke-opacity:1;stroke-dasharray:none" /><path
           d="m 117.7967,11.718 c 0,-1.404 -1.138,-2.542 -2.542,-2.542 -1.403,0 -2.541,1.138 -2.541,2.542 0,1.404 1.138,2.542 2.541,2.542 1.404,0 2.542,-1.138 2.542,-2.542"
           id="path3061"
           style="fill:#ffffff;fill-opacity:1;fill-rule:nonzero;stroke:#000000" /><path
           d="m 117.7967,11.718 c 0,-1.404 -1.138,-2.542 -2.542,-2.542 -1.403,0 -2.541,1.138 -2.541,2.542 0,1.404 1.138,2.542 2.541,2.542 1.404,0 2.542,-1.138 2.542,-2.542 z"
           id="path3065"
           style="fill:none;stroke:#000000;stroke-width:1;stroke-linecap:butt;stroke-linejoin:miter;stroke-miterlimit:10;stroke-opacity:1;stroke-dasharray:none" /></g><g
         transform="matrix(1.636851,0,0,1.636851,-473.08366,-4.8646264)"
         id="g3267"
         style="stroke:#000000"><path
           d="m 450.01773,4.1869622 -32.752,0 c -0.96,0 -1.739,0.778 -1.739,1.738 l 0,26.0769998 c 0,0.96 0.779,1.739 1.739,1.739 l 32.752,0 c 0.96,0 1.738,-0.779 1.738,-1.739 l 0,-26.0769998 c 0,-0.96 -0.778,-1.738 -1.738,-1.738"
           id="path3069"
           style="fill:#ffffff;fill-opacity:1;fill-rule:nonzero;stroke:#000000" /><path
           d="m 450.01773,4.1869622 -32.752,0 c -0.96,0 -1.739,0.778 -1.739,1.738 l 0,26.0769998 c 0,0.96 0.779,1.739 1.739,1.739 l 32.752,0 c 0.96,0 1.738,-0.779 1.738,-1.739 l 0,-26.0769998 c 0,-0.96 -0.778,-1.738 -1.738,-1.738 z"
           id="path3073"
           style="fill:none;stroke:#000000;stroke-width:1;stroke-linecap:butt;stroke-linejoin:miter;stroke-miterlimit:10;stroke-opacity:1;stroke-dasharray:none" /><path
           d="m 427.50613,11.020262 0.05,9.211 c 0.004,0.668 0.272,1.307 0.747,1.777 l 20.156,19.913 c 0.261,0.262 0.685,0.262 0.946,0 l 8.912,-8.912 c 0.262,-0.261 0.262,-0.685 0,-0.946 l -20.202,-19.959 c -0.447,-0.443 -1.043,-0.702 -1.672,-0.727 l -8.937,-0.357 z"
           id="path3077"
           style="fill:#ffffff;fill-opacity:1;fill-rule:nonzero;stroke:#000000" /><path
           d="m 427.50613,11.020262 0.05,9.211 c 0.004,0.668 0.272,1.307 0.747,1.777 l 20.156,19.913 c 0.261,0.262 0.685,0.262 0.946,0 l 8.912,-8.912 c 0.262,-0.261 0.262,-0.685 0,-0.946 l -20.202,-19.959 c -0.447,-0.443 -1.043,-0.702 -1.672,-0.727 l -8.937,-0.357 z"
           id="path3081"
           style="fill:none;stroke:#000000;stroke-width:1;stroke-linecap:butt;stroke-linejoin:miter;stroke-miterlimit:10;stroke-opacity:1;stroke-dasharray:none" /><path
           d="m 446.42283,40.103662 10,-10"
           id="path3085"
           style="fill:none;stroke:#000000;stroke-width:1;stroke-linecap:butt;stroke-linejoin:miter;stroke-miterlimit:10;stroke-opacity:1;stroke-dasharray:none" /><path
           d="m 427.50613,15.936962 4.729,-4.771"
           id="path3089"
           style="fill:none;stroke:#000000;stroke-width:1;stroke-linecap:butt;stroke-linejoin:miter;stroke-miterlimit:10;stroke-opacity:1;stroke-dasharray:none" /></g></g></g></svg>